<svg xmlns="http://www.w3.org/2000/svg" xmlns:xlink="http://www.w3.org/1999/xlink" width="500" zoomAndPan="magnify" viewBox="0 0 375 374.999991" height="500" preserveAspectRatio="xMidYMid meet" version="1.0"><defs><clipPath id="484db1d16b"><path d="M 73 109 L 259 109 L 259 274.210938 L 73 274.210938 Z M 73 109 " clip-rule="nonzero"/></clipPath><clipPath id="f8bac5f4df"><path d="M 173.285156 113.8125 L 257.5 261.1875 C 259.039062 263.882812 259.027344 267.191406 257.472656 269.875 C 255.914062 272.558594 253.046875 274.210938 249.941406 274.210938 L 81.746094 274.210938 C 78.644531 274.210938 75.777344 272.558594 74.21875 269.875 C 72.660156 267.191406 72.648438 263.882812 74.1875 261.1875 L 158.402344 113.8125 C 159.929688 111.140625 162.769531 109.496094 165.84375 109.496094 C 168.921875 109.496094 171.761719 111.140625 173.285156 113.8125 Z M 173.285156 113.8125 " clip-rule="nonzero"/></clipPath><clipPath id="394476bc07"><path d="M 172 158 L 302 158 L 302 274.210938 L 172 274.210938 Z M 172 158 " clip-rule="nonzero"/></clipPath><clipPath id="b204551595"><path d="M 244.492188 162.628906 L 300.8125 261.1875 C 302.351562 263.882812 302.339844 267.191406 300.78125 269.875 C 299.222656 272.558594 296.355469 274.210938 293.253906 274.210938 L 180.84375 274.210938 C 177.742188 274.210938 174.875 272.558594 173.316406 269.875 C 171.757812 267.191406 171.746094 263.882812 173.285156 261.1875 L 229.605469 162.628906 C 231.132812 159.957031 233.972656 158.308594 237.046875 158.308594 C 240.125 158.308594 242.964844 159.957031 244.492188 162.628906 Z M 244.492188 162.628906 " clip-rule="nonzero"/></clipPath><clipPath id="41f79951b5"><path d="M 116.296875 187.5 L 215.53125 187.5 L 215.53125 274.5 L 116.296875 274.5 Z M 116.296875 187.5 " clip-rule="nonzero"/></clipPath><clipPath id="28bc546f4a"><path d="M 165.84375 187.5 L 215.394531 274.5 L 116.296875 274.5 Z M 165.84375 187.5 " clip-rule="nonzero"/></clipPath><clipPath id="a29af5c906"><path d="M 160.503906 187.5 L 270.613281 187.5 L 270.613281 274.5 L 160.503906 274.5 Z M 160.503906 187.5 " clip-rule="nonzero"/></clipPath><clipPath id="12dbf73905"><path d="M 215.394531 187.5 L 270.285156 274.5 L 160.503906 274.5 Z M 215.394531 187.5 " clip-rule="nonzero"/></clipPath><clipPath id="7b983c3c8e"><path d="M 159.144531 227.847656 L 219.558594 227.847656 L 219.558594 274.570312 L 159.144531 274.570312 Z M 159.144531 227.847656 " clip-rule="nonzero"/></clipPath><clipPath id="209df83587"><path d="M 189.320312 227.847656 L 219.492188 274.570312 L 159.144531 274.570312 Z M 189.320312 227.847656 " clip-rule="nonzero"/></clipPath></defs><rect x="-37.5" width="450" fill="#ffffff" y="-37.499999" height="449.999989" fill-opacity="1"/><rect x="-37.5" width="450" fill="#ffffff" y="-37.499999" height="449.999989" fill-opacity="1"/><g clip-path="url(#484db1d16b)"><g clip-path="url(#f8bac5f4df)"><path fill="#000000" d="M 66.746094 100.789062 L 265.234375 100.789062 L 265.234375 274.210938 L 66.746094 274.210938 Z M 66.746094 100.789062 " fill-opacity="1" fill-rule="nonzero"/></g></g><g clip-path="url(#394476bc07)"><g clip-path="url(#b204551595)"><path fill="#000000" d="M 165.84375 149.605469 L 308.460938 149.605469 L 308.460938 274.210938 L 165.84375 274.210938 Z M 165.84375 149.605469 " fill-opacity="1" fill-rule="nonzero"/></g></g><g clip-path="url(#41f79951b5)"><g clip-path="url(#28bc546f4a)"><path fill="#ffffff" d="M 116.296875 187.5 L 215.53125 187.5 L 215.53125 274.5 L 116.296875 274.5 Z M 116.296875 187.5 " fill-opacity="1" fill-rule="nonzero"/></g></g><g clip-path="url(#a29af5c906)"><g clip-path="url(#12dbf73905)"><path fill="#ffffff" d="M 160.503906 187.5 L 270.273438 187.5 L 270.273438 274.5 L 160.503906 274.5 Z M 160.503906 187.5 " fill-opacity="1" fill-rule="nonzero"/></g></g><g clip-path="url(#7b983c3c8e)"><g clip-path="url(#209df83587)"><path fill="#000000" d="M 159.144531 227.847656 L 219.558594 227.847656 L 219.558594 274.570312 L 159.144531 274.570312 Z M 159.144531 227.847656 " fill-opacity="1" fill-rule="nonzero"/></g></g></svg>